<?xml version="1.0" standalone="no"?>
<!DOCTYPE svg PUBLIC "-//W3C//DTD SVG 20010904//EN"
 "http://www.w3.org/TR/2001/REC-SVG-20010904/DTD/svg10.dtd">
<svg version="1.0" xmlns="http://www.w3.org/2000/svg"
 width="225.000000pt" height="225.000000pt" viewBox="0 0 225.000000 225.000000"
 preserveAspectRatio="xMidYMid meet">

<g transform="translate(0.000000,225.000000) scale(0.100000,-0.100000)"
fill="#ffffff" stroke="none">
<path d="M96 2018 c16 -18 32 -35 35 -38 32 -28 146 -225 173 -299 57 -159 74
-224 92 -366 29 -228 9 -432 -65 -670 -16 -52 -72 -177 -97 -217 -13 -20 -24
-40 -24 -44 0 -7 -86 -121 -118 -157 l-26 -27 887 0 886 0 35 38 c109 118 212
318 262 507 75 289 57 650 -47 910 -53 131 -140 278 -212 358 l-34 37 -888 0
-889 0 30 -32z m892 -880 l2 -418 -90 0 -90 0 0 420 0 421 88 -3 87 -3 3 -417z
m587 398 c65 -21 122 -68 146 -120 37 -81 14 -187 -51 -238 l-32 -25 26 -16
c77 -51 107 -130 86 -229 -18 -84 -72 -139 -165 -167 -58 -18 -93 -21 -256
-21 l-189 0 0 421 0 421 193 -5 c137 -4 206 -10 242 -21z"/>
<path d="M1320 1310 l0 -100 74 0 c116 0 166 32 166 106 0 67 -47 94 -160 94
l-80 0 0 -100z"/>
<path d="M1320 975 l0 -105 95 0 c110 0 137 12 155 66 9 26 9 43 0 72 -20 62
-41 72 -152 72 l-98 0 0 -105z"/>
</g>
</svg>
